<?xml version="1.0" encoding="UTF-8" standalone="no"?><!DOCTYPE svg PUBLIC "-//W3C//DTD SVG 1.1//EN" "http://www.w3.org/Graphics/SVG/1.1/DTD/svg11.dtd"><svg width="100%" height="100%" viewBox="0 0 4200 1042" version="1.1" xmlns="http://www.w3.org/2000/svg" xmlns:xlink="http://www.w3.org/1999/xlink" xml:space="preserve" xmlns:serif="http://www.serif.com/" style="fill-rule:evenodd;clip-rule:evenodd;stroke-linejoin:round;stroke-miterlimit:2;"><g><g><g transform="matrix(894.403,0,0,894.403,4218.14,694.82)"></g><text x="71.691px" y="694.82px" style="font-family:'KeyuteRegular', 'Keyute';font-size:894.403px;fill:#027fff;stroke:#027fff;stroke-width:4.39px;">Very Daily</text><g transform="matrix(29.4553,0,0,29.4553,-7422.01,-10981.3)"><g transform="matrix(12,0,0,12,383.406,406.416)"></g><text x="317.97px" y="406.416px" style="font-family:'Rahovets';font-size:12px;fill:#027fff;">Delivery</text><path d="M324.882,398.587c1.354,0 2.453,1.099 2.453,2.453l-0,3.072c-0,1.355 -1.099,2.453 -2.453,2.453l-5.376,0c-0.719,0 -1.302,-0.582 -1.302,-1.301l0,-5.376c0,-0.718 0.583,-1.301 1.302,-1.301l5.376,0Zm-0,0.149l-5.376,0c-0.636,0 -1.152,0.516 -1.152,1.152l-0,5.376c-0,0.636 0.516,1.152 1.152,1.152l5.376,0c1.272,0 2.304,-1.032 2.304,-2.304l-0,-3.072c-0,-1.272 -1.032,-2.304 -2.304,-2.304Zm-1.728,6.528c-0,0.216 -0.168,0.384 -0.384,0.384c-0.216,0 -0.384,-0.168 -0.384,-0.384l-0,-5.376c-0,-0.216 0.168,-0.384 0.384,-0.384c0.216,0 0.384,0.168 0.384,0.384l-0,5.376Zm-0.15,0l0,-5.376c0,-0.132 -0.102,-0.235 -0.234,-0.235c-0.133,0 -0.235,0.103 -0.235,0.235l-0,5.376c-0,0.132 0.102,0.235 0.235,0.235c0.132,0 0.234,-0.103 0.234,-0.235Zm9.366,-1.387c-0.133,0 -0.235,0.103 -0.235,0.235c-0,0.132 0.102,0.235 0.235,0.235l3.648,0c0.501,0 0.917,0.416 0.917,0.917l-0,0.384c-0,0.502 -0.416,0.917 -0.917,0.917l-6.912,0c-0.719,0 -1.302,-0.582 -1.302,-1.301l0,-3.84c0,-0.718 0.583,-1.301 1.302,-1.301l6.528,0c0.718,0 1.301,0.583 1.301,1.301l-0,1.152c-0,0.719 -0.583,1.301 -1.301,1.301l-3.264,0Zm-0,-0.149l3.264,0c0.636,0 1.152,-0.516 1.152,-1.152l-0,-1.152c-0,-0.636 -0.516,-1.152 -1.152,-1.152l-6.528,0c-0.636,0 -1.152,0.516 -1.152,1.152l-0,3.84c-0,0.636 0.516,1.152 1.152,1.152l6.912,0c0.42,0 0.768,-0.348 0.768,-0.768l-0,-0.384c-0,-0.42 -0.348,-0.768 -0.768,-0.768l-3.648,0c-0.216,0 -0.384,-0.168 -0.384,-0.384c-0,-0.216 0.168,-0.384 0.384,-0.384Zm-0.384,-2.304c-0,-0.216 0.168,-0.384 0.384,-0.384c0.216,0 0.384,0.168 0.384,0.384l-0,1.152c-0,0.216 -0.168,0.384 -0.384,0.384c-0.216,0 -0.384,-0.168 -0.384,-0.384l-0,-1.152Zm0.149,0l-0,1.152c-0,0.132 0.102,0.235 0.235,0.235c0.132,0 0.234,-0.103 0.234,-0.235l0,-1.152c0,-0.132 -0.102,-0.235 -0.234,-0.235c-0.133,0 -0.235,0.103 -0.235,0.235Zm8.203,-2.837c0.718,0 1.301,0.583 1.301,1.301l-0,5.376c-0,0.719 -0.583,1.301 -1.301,1.301l-1.728,0c-0.719,0 -1.302,-0.582 -1.302,-1.301l0,-5.376c0,-0.718 0.583,-1.301 1.302,-1.301l1.728,0Zm-0,0.149l-1.728,0c-0.636,0 -1.152,0.516 -1.152,1.152l-0,5.376c-0,0.636 0.516,1.152 1.152,1.152l1.728,0c0.636,0 1.152,-0.516 1.152,-1.152l-0,-5.376c-0,-0.636 -0.516,-1.152 -1.152,-1.152Zm6.101,2.688l-0,3.84c-0,0.719 -0.583,1.301 -1.301,1.301l-1.728,0c-0.719,0 -1.302,-0.582 -1.302,-1.301l0,-3.84c0,-0.718 0.583,-1.301 1.302,-1.301l1.728,0c0.718,0 1.301,0.583 1.301,1.301Zm-0.149,0c-0,-0.636 -0.516,-1.152 -1.152,-1.152l-1.728,0c-0.636,0 -1.152,0.516 -1.152,1.152l-0,3.84c-0,0.636 0.516,1.152 1.152,1.152l1.728,0c0.636,0 1.152,-0.516 1.152,-1.152l-0,-3.84Zm-3.648,-1.771c-0.3,0 -0.534,-0.233 -0.534,-0.533c0,-0.3 0.234,-0.533 0.534,-0.533l3.264,0c0.299,0 0.533,0.233 0.533,0.533c-0,0.3 -0.234,0.533 -0.533,0.533l-3.264,0Zm-0,-0.149l3.264,0c0.216,0 0.384,-0.168 0.384,-0.384c-0,-0.216 -0.168,-0.384 -0.384,-0.384l-3.264,0c-0.216,0 -0.384,0.168 -0.384,0.384c-0,0.216 0.168,0.384 0.384,0.384Zm12.048,0.619c0.53,0 0.917,0.43 0.917,0.917c-0,0.116 -0.017,0.259 -0.074,0.375c-0,0 -1.919,4.365 -1.919,4.365c-0.203,0.474 -0.678,0.785 -1.192,0.785l-2.712,0c-0.515,0 -0.99,-0.311 -1.193,-0.785l-1.92,-4.367c-0.057,-0.129 -0.073,-0.258 -0.073,-0.373c0,-0.487 0.387,-0.917 0.918,-0.917l2.316,0c0.387,0 0.731,0.243 0.86,0.616l0.448,1.278l0.447,-1.278c0.128,-0.372 0.486,-0.616 0.873,-0.616l2.304,0Zm-0,0.149l-2.304,0c-0.324,0 -0.624,0.204 -0.732,0.516l-0.588,1.68l-0.588,-1.68c-0.108,-0.312 -0.396,-0.516 -0.72,-0.516l-2.316,0c-0.444,0 -0.768,0.36 -0.768,0.768c-0,0.096 0.012,0.204 0.06,0.312l1.92,4.368c0.18,0.42 0.6,0.696 1.056,0.696l2.712,0c0.456,0 0.876,-0.276 1.056,-0.696l1.92,-4.368c0.048,-0.096 0.06,-0.216 0.06,-0.312c-0,-0.408 -0.324,-0.768 -0.768,-0.768Zm5.58,3.605c-0.133,0 -0.235,0.103 -0.235,0.235c-0,0.132 0.102,0.235 0.235,0.235l3.648,0c0.501,0 0.917,0.416 0.917,0.917l-0,0.384c-0,0.502 -0.416,0.917 -0.917,0.917l-6.912,0c-0.719,0 -1.302,-0.582 -1.302,-1.301l0,-3.84c0,-0.718 0.583,-1.301 1.302,-1.301l6.528,0c0.718,0 1.301,0.583 1.301,1.301l-0,1.152c-0,0.719 -0.583,1.301 -1.301,1.301l-3.264,0Zm-0,-0.149l3.264,0c0.636,0 1.152,-0.516 1.152,-1.152l-0,-1.152c-0,-0.636 -0.516,-1.152 -1.152,-1.152l-6.528,0c-0.636,0 -1.152,0.516 -1.152,1.152l-0,3.84c-0,0.636 0.516,1.152 1.152,1.152l6.912,0c0.42,0 0.768,-0.348 0.768,-0.768l-0,-0.384c-0,-0.42 -0.348,-0.768 -0.768,-0.768l-3.648,0c-0.216,0 -0.384,-0.168 -0.384,-0.384c-0,-0.216 0.168,-0.384 0.384,-0.384Zm-0.384,-2.304c-0,-0.216 0.168,-0.384 0.384,-0.384c0.216,0 0.384,0.168 0.384,0.384l-0,1.152c-0,0.216 -0.168,0.384 -0.384,0.384c-0.216,0 -0.384,-0.168 -0.384,-0.384l-0,-1.152Zm0.149,0l-0,1.152c-0,0.132 0.102,0.235 0.235,0.235c0.132,0 0.234,-0.103 0.234,-0.235l0,-1.152c0,-0.132 -0.102,-0.235 -0.234,-0.235c-0.133,0 -0.235,0.103 -0.235,0.235Zm12.811,-1.301c0.501,0 0.917,0.416 0.917,0.917l-0,0.384c-0,0.502 -0.416,0.917 -0.917,0.917l-3.072,0c-0.133,0 -0.235,0.103 -0.235,0.235l-0,2.688c-0,0.719 -0.583,1.301 -1.301,1.301l-1.728,0c-0.719,0 -1.302,-0.582 -1.302,-1.301l0,-3.84c0,-0.718 0.583,-1.301 1.302,-1.301l6.336,0Zm-0,0.149l-6.336,0c-0.636,0 -1.152,0.516 -1.152,1.152l-0,3.84c-0,0.636 0.516,1.152 1.152,1.152l1.728,0c0.636,0 1.152,-0.516 1.152,-1.152l-0,-2.688c-0,-0.216 0.168,-0.384 0.384,-0.384l3.072,0c0.42,0 0.768,-0.348 0.768,-0.768l-0,-0.384c-0,-0.42 -0.348,-0.768 -0.768,-0.768Zm9.024,-0.149c0.718,0 1.301,0.583 1.301,1.301l-0,5.376c-0,0.719 -0.583,1.301 -1.301,1.301l-7.296,0c-0.3,0 -0.534,-0.233 -0.534,-0.533c0,-0.3 0.234,-0.533 0.534,-0.533l4.032,0c0.132,0 0.234,-0.103 0.234,-0.235c0,-0.132 -0.102,-0.235 -0.234,-0.235l-3.264,0c-0.719,0 -1.302,-0.582 -1.302,-1.301l0,-3.84c0,-0.718 0.583,-1.301 1.302,-1.301l1.728,0c0.718,0 1.301,0.583 1.301,1.301l-0,3.84c-0,0.132 0.102,0.235 0.235,0.235c0.132,0 0.234,-0.103 0.234,-0.235l0,-3.84c0,-0.718 0.583,-1.301 1.302,-1.301l1.728,0Zm-0,0.149l-1.728,0c-0.636,0 -1.152,0.516 -1.152,1.152l-0,3.84c-0,0.216 -0.168,0.384 -0.384,0.384c-0.216,0 -0.384,-0.168 -0.384,-0.384l-0,-3.84c-0,-0.636 -0.516,-1.152 -1.152,-1.152l-1.728,0c-0.636,0 -1.152,0.516 -1.152,1.152l-0,3.84c-0,0.636 0.516,1.152 1.152,1.152l3.264,0c0.216,0 0.384,0.168 0.384,0.384c-0,0.216 -0.168,0.384 -0.384,0.384l-4.032,0c-0.216,0 -0.384,0.168 -0.384,0.384c-0,0.216 0.168,0.384 0.384,0.384l7.296,0c0.636,0 1.152,-0.516 1.152,-1.152l-0,-5.376c-0,-0.636 -0.516,-1.152 -1.152,-1.152Z" style="fill:#027fff;"/></g></g><g><g transform="matrix(894.403,0,0,894.403,4142.62,628.739)"></g><text x="-3.831px" y="628.739px" style="font-family:'KeyuteRegular', 'Keyute';font-size:894.403px;fill:#fff;stroke:#027fff;stroke-width:4.39px;">Very Daily</text><g transform="matrix(29.4553,0,0,29.4553,-7497.54,-11047.4)"><g transform="matrix(12,0,0,12,383.406,406.416)"></g><text x="317.97px" y="406.416px" style="font-family:'Rahovets';font-size:12px;fill:#fff;">Delivery</text><path d="M324.882,398.587c1.354,0 2.453,1.099 2.453,2.453l-0,3.072c-0,1.355 -1.099,2.453 -2.453,2.453l-5.376,0c-0.719,0 -1.302,-0.582 -1.302,-1.301l0,-5.376c0,-0.718 0.583,-1.301 1.302,-1.301l5.376,0Zm-0,0.149l-5.376,0c-0.636,0 -1.152,0.516 -1.152,1.152l-0,5.376c-0,0.636 0.516,1.152 1.152,1.152l5.376,0c1.272,0 2.304,-1.032 2.304,-2.304l-0,-3.072c-0,-1.272 -1.032,-2.304 -2.304,-2.304Zm-1.728,6.528c-0,0.216 -0.168,0.384 -0.384,0.384c-0.216,0 -0.384,-0.168 -0.384,-0.384l-0,-5.376c-0,-0.216 0.168,-0.384 0.384,-0.384c0.216,0 0.384,0.168 0.384,0.384l-0,5.376Zm-0.15,0l0,-5.376c0,-0.132 -0.102,-0.235 -0.234,-0.235c-0.133,0 -0.235,0.103 -0.235,0.235l-0,5.376c-0,0.132 0.102,0.235 0.235,0.235c0.132,0 0.234,-0.103 0.234,-0.235Zm9.366,-1.387c-0.133,0 -0.235,0.103 -0.235,0.235c-0,0.132 0.102,0.235 0.235,0.235l3.648,0c0.501,0 0.917,0.416 0.917,0.917l-0,0.384c-0,0.502 -0.416,0.917 -0.917,0.917l-6.912,0c-0.719,0 -1.302,-0.582 -1.302,-1.301l0,-3.84c0,-0.718 0.583,-1.301 1.302,-1.301l6.528,0c0.718,0 1.301,0.583 1.301,1.301l-0,1.152c-0,0.719 -0.583,1.301 -1.301,1.301l-3.264,0Zm-0,-0.149l3.264,0c0.636,0 1.152,-0.516 1.152,-1.152l-0,-1.152c-0,-0.636 -0.516,-1.152 -1.152,-1.152l-6.528,0c-0.636,0 -1.152,0.516 -1.152,1.152l-0,3.84c-0,0.636 0.516,1.152 1.152,1.152l6.912,0c0.42,0 0.768,-0.348 0.768,-0.768l-0,-0.384c-0,-0.42 -0.348,-0.768 -0.768,-0.768l-3.648,0c-0.216,0 -0.384,-0.168 -0.384,-0.384c-0,-0.216 0.168,-0.384 0.384,-0.384Zm-0.384,-2.304c-0,-0.216 0.168,-0.384 0.384,-0.384c0.216,0 0.384,0.168 0.384,0.384l-0,1.152c-0,0.216 -0.168,0.384 -0.384,0.384c-0.216,0 -0.384,-0.168 -0.384,-0.384l-0,-1.152Zm0.149,0l-0,1.152c-0,0.132 0.102,0.235 0.235,0.235c0.132,0 0.234,-0.103 0.234,-0.235l0,-1.152c0,-0.132 -0.102,-0.235 -0.234,-0.235c-0.133,0 -0.235,0.103 -0.235,0.235Zm8.203,-2.837c0.718,0 1.301,0.583 1.301,1.301l-0,5.376c-0,0.719 -0.583,1.301 -1.301,1.301l-1.728,0c-0.719,0 -1.302,-0.582 -1.302,-1.301l0,-5.376c0,-0.718 0.583,-1.301 1.302,-1.301l1.728,0Zm-0,0.149l-1.728,0c-0.636,0 -1.152,0.516 -1.152,1.152l-0,5.376c-0,0.636 0.516,1.152 1.152,1.152l1.728,0c0.636,0 1.152,-0.516 1.152,-1.152l-0,-5.376c-0,-0.636 -0.516,-1.152 -1.152,-1.152Zm6.101,2.688l-0,3.84c-0,0.719 -0.583,1.301 -1.301,1.301l-1.728,0c-0.719,0 -1.302,-0.582 -1.302,-1.301l0,-3.84c0,-0.718 0.583,-1.301 1.302,-1.301l1.728,0c0.718,0 1.301,0.583 1.301,1.301Zm-0.149,0c-0,-0.636 -0.516,-1.152 -1.152,-1.152l-1.728,0c-0.636,0 -1.152,0.516 -1.152,1.152l-0,3.84c-0,0.636 0.516,1.152 1.152,1.152l1.728,0c0.636,0 1.152,-0.516 1.152,-1.152l-0,-3.84Zm-3.648,-1.771c-0.3,0 -0.534,-0.233 -0.534,-0.533c0,-0.3 0.234,-0.533 0.534,-0.533l3.264,0c0.299,0 0.533,0.233 0.533,0.533c-0,0.3 -0.234,0.533 -0.533,0.533l-3.264,0Zm-0,-0.149l3.264,0c0.216,0 0.384,-0.168 0.384,-0.384c-0,-0.216 -0.168,-0.384 -0.384,-0.384l-3.264,0c-0.216,0 -0.384,0.168 -0.384,0.384c-0,0.216 0.168,0.384 0.384,0.384Zm12.048,0.619c0.53,0 0.917,0.43 0.917,0.917c-0,0.116 -0.017,0.259 -0.074,0.375c-0,0 -1.919,4.365 -1.919,4.365c-0.203,0.474 -0.678,0.785 -1.192,0.785l-2.712,0c-0.515,0 -0.99,-0.311 -1.193,-0.785l-1.92,-4.367c-0.057,-0.129 -0.073,-0.258 -0.073,-0.373c0,-0.487 0.387,-0.917 0.918,-0.917l2.316,0c0.387,0 0.731,0.243 0.86,0.616l0.448,1.278l0.447,-1.278c0.128,-0.372 0.486,-0.616 0.873,-0.616l2.304,0Zm-0,0.149l-2.304,0c-0.324,0 -0.624,0.204 -0.732,0.516l-0.588,1.68l-0.588,-1.68c-0.108,-0.312 -0.396,-0.516 -0.72,-0.516l-2.316,0c-0.444,0 -0.768,0.36 -0.768,0.768c-0,0.096 0.012,0.204 0.06,0.312l1.92,4.368c0.18,0.42 0.6,0.696 1.056,0.696l2.712,0c0.456,0 0.876,-0.276 1.056,-0.696l1.92,-4.368c0.048,-0.096 0.06,-0.216 0.06,-0.312c-0,-0.408 -0.324,-0.768 -0.768,-0.768Zm5.58,3.605c-0.133,0 -0.235,0.103 -0.235,0.235c-0,0.132 0.102,0.235 0.235,0.235l3.648,0c0.501,0 0.917,0.416 0.917,0.917l-0,0.384c-0,0.502 -0.416,0.917 -0.917,0.917l-6.912,0c-0.719,0 -1.302,-0.582 -1.302,-1.301l0,-3.84c0,-0.718 0.583,-1.301 1.302,-1.301l6.528,0c0.718,0 1.301,0.583 1.301,1.301l-0,1.152c-0,0.719 -0.583,1.301 -1.301,1.301l-3.264,0Zm-0,-0.149l3.264,0c0.636,0 1.152,-0.516 1.152,-1.152l-0,-1.152c-0,-0.636 -0.516,-1.152 -1.152,-1.152l-6.528,0c-0.636,0 -1.152,0.516 -1.152,1.152l-0,3.84c-0,0.636 0.516,1.152 1.152,1.152l6.912,0c0.42,0 0.768,-0.348 0.768,-0.768l-0,-0.384c-0,-0.42 -0.348,-0.768 -0.768,-0.768l-3.648,0c-0.216,0 -0.384,-0.168 -0.384,-0.384c-0,-0.216 0.168,-0.384 0.384,-0.384Zm-0.384,-2.304c-0,-0.216 0.168,-0.384 0.384,-0.384c0.216,0 0.384,0.168 0.384,0.384l-0,1.152c-0,0.216 -0.168,0.384 -0.384,0.384c-0.216,0 -0.384,-0.168 -0.384,-0.384l-0,-1.152Zm0.149,0l-0,1.152c-0,0.132 0.102,0.235 0.235,0.235c0.132,0 0.234,-0.103 0.234,-0.235l0,-1.152c0,-0.132 -0.102,-0.235 -0.234,-0.235c-0.133,0 -0.235,0.103 -0.235,0.235Zm12.811,-1.301c0.501,0 0.917,0.416 0.917,0.917l-0,0.384c-0,0.502 -0.416,0.917 -0.917,0.917l-3.072,0c-0.133,0 -0.235,0.103 -0.235,0.235l-0,2.688c-0,0.719 -0.583,1.301 -1.301,1.301l-1.728,0c-0.719,0 -1.302,-0.582 -1.302,-1.301l0,-3.84c0,-0.718 0.583,-1.301 1.302,-1.301l6.336,0Zm-0,0.149l-6.336,0c-0.636,0 -1.152,0.516 -1.152,1.152l-0,3.84c-0,0.636 0.516,1.152 1.152,1.152l1.728,0c0.636,0 1.152,-0.516 1.152,-1.152l-0,-2.688c-0,-0.216 0.168,-0.384 0.384,-0.384l3.072,0c0.42,0 0.768,-0.348 0.768,-0.768l-0,-0.384c-0,-0.42 -0.348,-0.768 -0.768,-0.768Zm9.024,-0.149c0.718,0 1.301,0.583 1.301,1.301l-0,5.376c-0,0.719 -0.583,1.301 -1.301,1.301l-7.296,0c-0.3,0 -0.534,-0.233 -0.534,-0.533c0,-0.3 0.234,-0.533 0.534,-0.533l4.032,0c0.132,0 0.234,-0.103 0.234,-0.235c0,-0.132 -0.102,-0.235 -0.234,-0.235l-3.264,0c-0.719,0 -1.302,-0.582 -1.302,-1.301l0,-3.84c0,-0.718 0.583,-1.301 1.302,-1.301l1.728,0c0.718,0 1.301,0.583 1.301,1.301l-0,3.84c-0,0.132 0.102,0.235 0.235,0.235c0.132,0 0.234,-0.103 0.234,-0.235l0,-3.84c0,-0.718 0.583,-1.301 1.302,-1.301l1.728,0Zm-0,0.149l-1.728,0c-0.636,0 -1.152,0.516 -1.152,1.152l-0,3.84c-0,0.216 -0.168,0.384 -0.384,0.384c-0.216,0 -0.384,-0.168 -0.384,-0.384l-0,-3.84c-0,-0.636 -0.516,-1.152 -1.152,-1.152l-1.728,0c-0.636,0 -1.152,0.516 -1.152,1.152l-0,3.84c-0,0.636 0.516,1.152 1.152,1.152l3.264,0c0.216,0 0.384,0.168 0.384,0.384c-0,0.216 -0.168,0.384 -0.384,0.384l-4.032,0c-0.216,0 -0.384,0.168 -0.384,0.384c-0,0.216 0.168,0.384 0.384,0.384l7.296,0c0.636,0 1.152,-0.516 1.152,-1.152l-0,-5.376c-0,-0.636 -0.516,-1.152 -1.152,-1.152Z" style="fill:#027fff;"/></g></g></g></svg>